# xmcd
#
# Track frame offsets: 
#        150
#        13785
#        30016
#        46949
#        65833
#        84945
#        101455
#        120045
#        131466
#        151283
#        172711
#        197380
#        213830
#
# Disc length: 3107 seconds
#
# Revision: 6
# Processed by: cddbd v1.5.2PL0 Copyright (c) Steve Scherf et al.
# Submitted via: ExactAudioCopyFreeDBPlugin 1.0
#
DISCID=8a0c210d
DTITLE=Chris Farlowe - Hotel Eingang
DYEAR=2008
DGENRE=Blues
TTITLE0=Jealous Man
TTITLE1=Don't Wanna Love You Anymore
TTITLE2=It Should've Been Me
TTITLE3=So Hard To Get Along With
TTITLE4=I've Got Your Love
TTITLE5=The Woman? Or The Blues
TTITLE6=9lbs of Steel
TTITLE7=Baby's Arms
TTITLE8=I Only Have Love For You
TTITLE9=Fog On The Highway
TTITLE10=I'd Rather Be Lying With You
TTITLE11=That's Why Lovers Have the Blues
TTITLE12=Hotel Eingang
EXTD=
EXTT0=
EXTT1=
EXTT2=
EXTT3=
EXTT4=
EXTT5=
EXTT6=
EXTT7=
EXTT8=
EXTT9=
EXTT10=
EXTT11=
EXTT12=
PLAYORDER=
